# Blender v2.78 (sub 0) OBJ File: 'bullet-sniper.blend'
# www.blender.org
mtllib bullet-sniper.mtl
o bullet_Cube
v -0.001114 -0.007906 -0.000045
v -0.001114 0.000017 0.007877
v -0.001114 0.000017 -0.007968
v -0.001114 0.007939 -0.000045
v 0.054522 0.000017 -0.001628
v 0.054522 -0.001566 -0.000045
v 0.054522 0.000017 0.001537
v 0.054522 0.001599 -0.000045
v 0.025448 0.000017 -0.005045
v 0.025448 0.005016 -0.000045
v 0.025448 0.000017 0.004954
v 0.025448 -0.004983 -0.000045
v -0.003803 -0.009774 -0.000045
v -0.003803 0.000017 0.009746
v -0.003803 0.009808 -0.000045
v -0.003803 0.000017 -0.009836
v -0.037191 -0.009982 0.000041
v -0.037191 -0.000191 0.009832
v -0.037191 0.009600 0.000041
v -0.037191 -0.000191 -0.009750
v -0.037191 -0.011407 0.000041
v -0.037191 -0.000191 0.011257
v -0.037191 0.011026 0.000041
v -0.037191 -0.000191 -0.011176
v -0.041521 -0.011407 0.000041
v -0.041521 -0.000191 0.011257
v -0.041521 0.011026 0.000041
v -0.041521 -0.000191 -0.011176
v 0.023888 -0.005989 -0.000045
v 0.023888 0.000017 0.005960
v 0.023888 0.006022 -0.000045
v 0.023888 0.000017 -0.006051
vn 0.0541 0.7061 -0.7061
vn 0.4411 0.6346 0.6346
vn 0.4411 -0.6346 0.6346
vn 0.4411 -0.6346 -0.6346
vn 0.4411 0.6346 -0.6346
vn 0.4148 -0.6434 -0.6434
vn 0.4148 -0.6434 0.6434
vn 0.4148 0.6434 0.6434
vn 0.4148 0.6434 -0.6434
vn 0.0541 -0.7061 0.7061
vn 0.0541 0.7061 0.7061
vn 0.0541 -0.7061 -0.7061
vn -0.0062 0.7071 -0.7071
vn -0.0026 0.7071 0.7071
vn 0.0062 -0.7071 0.7071
vn 0.0026 -0.7071 -0.7071
vn 1.0000 0.0000 0.0000
vn 0.0828 -0.7047 -0.7047
vn 0.0828 0.7047 0.7047
vn 0.0828 -0.7047 0.7047
vn 0.0000 0.7071 -0.7071
vn 0.0000 0.7071 0.7071
vn 0.0000 -0.7071 0.7071
vn 0.0000 -0.7071 -0.7071
vn 0.0828 0.7047 -0.7047
vn -1.0000 0.0000 0.0000
usemtl metal_gold
s off
f 31//1 32//1 3//1 4//1
f 15//2 14//2 2//2 4//2
f 14//3 13//3 1//3 2//3
f 13//4 16//4 3//4 1//4
f 16//5 15//5 4//5 3//5
f 29//6 32//6 9//6 12//6
f 30//7 29//7 12//7 11//7
f 31//8 30//8 11//8 10//8
f 32//9 31//9 10//9 9//9
f 29//10 30//10 2//10 1//10
f 2//11 30//11 31//11 4//11
f 3//12 32//12 29//12 1//12
f 15//13 16//13 20//13 19//13
f 14//14 15//14 19//14 18//14
f 13//15 14//15 18//15 17//15
f 16//16 13//16 17//16 20//16
usemtl metal_copper
f 7//17 6//17 5//17 8//17
f 12//18 9//18 5//18 6//18
f 10//19 11//19 7//19 8//19
f 11//20 12//20 6//20 7//20
f 20//17 17//17 21//17 24//17
f 19//17 20//17 24//17 23//17
f 18//17 19//17 23//17 22//17
f 17//17 18//17 22//17 21//17
f 23//21 24//21 28//21 27//21
f 22//22 23//22 27//22 26//22
f 21//23 22//23 26//23 25//23
f 24//24 21//24 25//24 28//24
f 9//25 10//25 8//25 5//25
f 26//26 27//26 28//26 25//26
