# Blender v2.78 (sub 0) OBJ File: 'bullet-shotgun.blend'
# www.blender.org
mtllib bullet-shotgun.mtl
o bullet-shotgun_Cube.002
v -0.008002 -0.004604 0.000000
v -0.008002 0.000000 0.004604
v -0.008002 0.004604 0.000000
v -0.008002 -0.000000 -0.004604
v -0.008002 -0.000000 -0.005136
v -0.008002 0.005136 0.000000
v -0.008002 -0.005136 0.000000
v -0.008002 0.000000 0.005136
v 0.010000 -0.003309 0.000000
v 0.009084 -0.004604 0.000000
v 0.010000 0.000000 0.003309
v 0.009084 0.000000 0.004604
v 0.010000 0.003309 0.000000
v 0.009084 0.004604 -0.000000
v 0.010000 -0.000000 -0.003309
v 0.009084 -0.000000 -0.004604
v -0.010000 0.000000 0.005136
v -0.010000 -0.005136 0.000000
v -0.010000 -0.000000 -0.005136
v -0.010000 0.005136 0.000000
vn 1.0000 0.0000 0.0000
vn 0.0000 0.7071 -0.7071
vn 0.0000 -0.7071 0.7071
vn 0.0000 0.7071 0.7071
vn 0.7071 -0.5000 0.5000
vn 0.7071 0.5000 0.5000
vn 0.7071 0.5000 -0.5000
vn 0.7071 -0.5000 -0.5000
vn -0.0000 -0.7071 -0.7071
vn -1.0000 -0.0000 0.0000
usemtl metal_gold
s off
f 9//1 15//1 13//1 11//1
f 14//2 16//2 4//2 3//2
f 10//3 12//3 2//3 1//3
f 12//4 14//4 3//4 2//4
f 9//5 11//5 12//5 10//5
f 11//6 13//6 14//6 12//6
f 13//7 15//7 16//7 14//7
f 15//8 9//8 10//8 16//8
f 4//9 16//9 10//9 1//9
usemtl metal_copper
f 1//1 2//1 8//1 7//1
f 7//3 8//3 17//3 18//3
f 3//1 4//1 5//1 6//1
f 5//9 7//9 18//9 19//9
f 8//4 6//4 20//4 17//4
f 6//2 5//2 19//2 20//2
f 4//1 1//1 7//1 5//1
f 2//1 3//1 6//1 8//1
f 18//10 17//10 20//10 19//10
