# Blender v2.78 (sub 0) OBJ File: 'pistol-coonan.blend'
# www.blender.org
mtllib pistol-coonan.mtl
o mag_Cube.002
v -0.042768 0.004866 0.013213
v -0.042768 0.004866 -0.013213
v -0.083496 0.005418 -0.013213
v -0.083479 0.005417 0.013213
v -0.044034 -0.016440 0.013213
v -0.044034 -0.016440 -0.013213
v -0.068772 -0.089962 -0.013213
v -0.115143 -0.080280 0.013213
v -0.068772 -0.089962 0.013213
v -0.115143 -0.080280 -0.013213
v -0.067328 -0.093236 0.014624
v -0.118675 -0.082495 0.014624
v -0.066271 -0.090481 0.014624
v -0.067328 -0.093236 -0.014624
v -0.118675 -0.082495 -0.014624
v -0.066271 -0.090481 -0.014624
v -0.117596 -0.079771 0.014624
v -0.117596 -0.079771 -0.014624
vn 0.0000 -0.0000 -1.0000
vn 0.0000 -0.0000 1.0000
vn 0.9478 -0.3189 0.0000
vn -0.9380 0.3465 0.0003
vn 0.9982 -0.0593 0.0000
vn -0.2048 -0.9788 0.0000
vn 0.2032 0.9791 0.0000
vn 0.0135 0.9999 0.0000
vn -0.9298 0.3680 0.0000
vn 0.9337 -0.3581 0.0000
vn 0.2043 0.9789 0.0000
usemtl metal_dark
s off
f 6//1 3//1 2//1
f 4//2 5//2 1//2
f 9//3 7//3 6//3 5//3
f 8//4 4//4 3//4 10//4
f 5//5 6//5 2//5 1//5
f 5//2 4//2 8//2 9//2
f 6//1 7//1 10//1 3//1
f 11//6 12//6 15//6 14//6
f 8//7 10//7 18//7 17//7
f 7//7 9//7 13//7 16//7
f 3//8 4//8 1//8 2//8
f 16//1 14//1 15//1 18//1
f 13//2 17//2 12//2 11//2
f 12//9 17//9 18//9 15//9
f 11//10 14//10 16//10 13//10
f 10//11 7//11 16//11 18//11
f 9//11 8//11 17//11 13//11
o reload_Cube.001
v -0.079501 0.071805 0.007159
v -0.058699 0.065554 0.007159
v -0.006491 0.059936 0.017287
v -0.002925 0.063087 0.013927
v 0.113106 0.063087 0.013928
v 0.116257 0.059936 0.017287
v -0.084771 0.063087 0.013927
v -0.083059 0.059936 0.017287
v 0.044747 0.063087 0.013928
v 0.047673 0.059936 0.017287
v -0.008266 0.047103 0.017287
v -0.004700 0.049507 0.013929
v -0.094237 0.035143 0.013927
v 0.043682 0.049507 0.013929
v 0.046608 0.047103 0.017287
v -0.004700 0.046406 0.000000
v 0.043682 0.046406 0.000000
v -0.079501 0.071805 -0.007159
v -0.058699 0.065554 -0.007159
v -0.006491 0.059936 -0.017287
v -0.002925 0.063087 -0.013927
v 0.113106 0.063087 -0.013928
v 0.116257 0.059936 -0.017287
v -0.084771 0.063087 -0.013927
v -0.083059 0.059936 -0.017287
v 0.044747 0.063087 -0.013928
v 0.047673 0.059936 -0.017287
v -0.008266 0.047103 -0.017287
v -0.004700 0.049507 -0.013929
v 0.043682 0.049507 -0.013929
v 0.046608 0.047103 -0.017287
v -0.084771 0.063087 0.007159
v -0.058565 0.063087 0.007159
v -0.084771 0.063087 -0.007159
v -0.058565 0.063087 -0.007159
v -0.094237 0.035143 -0.013927
v 0.116257 0.039087 -0.015078
v -0.088959 0.039087 0.015078
v -0.088959 0.039087 -0.015078
v 0.116059 0.035143 0.017287
v -0.090442 0.035143 0.017287
v -0.090442 0.035143 -0.017287
v -0.089156 0.035143 -0.015078
v 0.116059 0.035143 0.015078
v 0.116257 0.035143 -0.015078
v -0.089156 0.035143 0.015078
v 0.116257 0.035143 -0.017287
v 0.116257 0.039087 0.015078
v 0.114768 0.039087 0.015078
v 0.114768 0.039087 -0.015078
vn -0.0000 0.0000 1.0000
vn -0.9968 0.0782 -0.0174
vn 1.0000 0.0000 0.0000
vn 0.2878 0.9577 0.0000
vn 0.0000 0.9761 -0.2173
vn -0.8558 0.5173 0.0000
vn 0.0000 1.0000 0.0000
vn -0.0000 -0.0000 -1.0000
vn 0.9985 0.0543 0.0000
vn 0.7071 0.7071 0.0000
vn -0.0000 0.7294 0.6841
vn -0.6998 0.2236 0.6785
vn -0.0000 0.7293 0.6842
vn -0.7282 0.0587 0.6829
vn 0.7214 -0.0969 0.6857
vn -0.0000 0.8132 0.5820
vn -0.9977 0.0679 0.0050
vn 0.9912 -0.1295 0.0288
vn 0.0000 0.9761 0.2173
vn 0.9936 -0.1127 -0.0084
vn -0.0000 0.7294 -0.6841
vn -0.6998 0.2236 -0.6785
vn -0.0000 0.7293 -0.6842
vn -0.7282 0.0587 -0.6829
vn 0.7214 -0.0969 -0.6857
vn -0.0000 0.8132 -0.5820
vn -0.9471 0.3208 0.0000
vn 0.9988 -0.0499 0.0000
vn 0.0000 -1.0000 -0.0000
vn 0.9978 -0.0137 0.0646
usemtl metal
s off
f 33//12 58//12 24//12 28//12
f 35//13 32//13 27//13
f 55//14 41//14 24//14 66//14
f 20//15 37//15 36//15 19//15
f 59//12 29//12 21//12 26//12
f 30//16 32//16 35//16 34//16
f 19//17 36//17 52//17 50//17
f 23//18 40//18 44//18 27//18
f 65//19 60//19 46//19 49//19
f 53//20 37//20 20//20 51//20
f 50//12 51//12 20//12 19//12
f 24//21 41//21 40//21 23//21
f 22//22 25//22 26//22 21//22
f 59//23 26//23 25//23 31//23
f 23//24 27//24 28//24 24//24
f 33//25 28//25 27//25 32//25
f 21//26 29//26 30//26 22//26
f 32//27 30//27 29//27 33//27
f 55//14 63//14 65//14 41//14
f 65//19 49//19 45//19 41//19
f 35//28 27//28 44//28 48//28
f 60//19 43//19 38//19 46//19
f 34//29 22//29 30//29
f 47//30 34//30 35//30 48//30
f 39//31 22//31 34//31 47//31
f 52//19 36//19 37//19 53//19
f 39//32 38//32 43//32 42//32
f 60//33 54//33 42//33 43//33
f 40//34 41//34 45//34 44//34
f 49//35 48//35 44//35 45//35
f 38//36 39//36 47//36 46//36
f 48//37 49//37 46//37 47//37
f 31//38 25//38 42//38 54//38
f 25//18 22//18 39//18 42//18
f 59//12 58//12 33//12 29//12
f 57//39 56//39 64//39 61//39
f 55//12 68//12 63//12
f 58//40 59//40 64//40 62//40
f 59//40 31//40 64//40
f 54//40 60//40 61//40
f 31//40 54//40 61//40 64//40
f 60//40 65//40 63//40 61//40
f 56//19 67//19 62//19 64//19
f 58//41 62//41 66//41 24//41
f 66//40 67//40 68//40 55//40
f 62//19 67//19 66//19
f 63//12 68//12 57//12 61//12
o body_Cube
v -0.089156 0.035143 0.015078
v -0.089156 0.035143 0.015078
v -0.098201 0.016975 0.011463
v -0.098201 0.031949 0.011463
v -0.119292 0.022238 0.010808
v -0.119292 0.030794 0.010808
v -0.058699 0.051841 0.009201
v 0.121976 0.051841 0.009201
v 0.111617 0.022231 0.012595
v 0.114722 0.024714 0.012785
v 0.111617 0.024714 0.015078
v -0.088745 0.003666 0.015078
v -0.091682 0.002825 0.012595
v 0.111617 0.035936 0.015078
v -0.025709 0.024714 0.015078
v -0.023940 0.022231 0.012595
v -0.117336 -0.076507 0.015078
v -0.119814 -0.076065 0.012595
v -0.118209 -0.078869 0.012595
v -0.061751 -0.087132 0.012595
v -0.064208 -0.086638 0.015078
v -0.065002 -0.089014 0.012595
v 0.121976 0.051841 0.007683
v 0.116540 0.051841 0.007683
v -0.089156 0.035143 -0.015078
v -0.089156 0.035143 -0.015078
v -0.098201 0.016975 -0.011463
v -0.098201 0.031949 -0.011463
v -0.119292 0.022238 -0.010808
v -0.119292 0.030794 -0.010808
v -0.058699 0.043070 0.000000
v 0.121976 0.043070 0.000000
v -0.058699 0.051841 -0.009201
v 0.121976 0.051841 -0.009201
v -0.058699 0.060611 0.000000
v 0.121976 0.060611 0.000000
v 0.111617 0.022231 -0.012595
v 0.114722 0.024714 -0.013349
v 0.111617 0.024714 -0.015078
v -0.091682 0.002825 -0.012595
v -0.088745 0.003666 -0.015078
v 0.111617 0.035936 -0.015078
v -0.025709 0.024714 -0.015078
v -0.023940 0.022231 -0.012595
v -0.117336 -0.076507 -0.015078
v -0.119814 -0.076065 -0.012595
v -0.118209 -0.078869 -0.012595
v -0.061751 -0.087132 -0.012595
v -0.064208 -0.086638 -0.015078
v -0.065002 -0.089014 -0.012595
v 0.121976 0.045241 0.000000
v 0.121976 0.051841 -0.007683
v 0.121976 0.058441 0.000000
v 0.116540 0.045241 0.000000
v 0.116540 0.051841 -0.007683
v 0.116540 0.058441 0.000000
v 0.114722 0.035936 0.012785
v 0.114722 0.035936 -0.013349
v -0.087089 0.039087 0.015078
v -0.087089 0.039087 0.015078
v 0.111617 0.039087 0.015078
v -0.087286 0.039087 -0.015078
v -0.087286 0.039087 -0.015078
v 0.111617 0.039087 -0.015078
v 0.114722 0.039087 0.012785
v 0.114722 0.039087 -0.013349
v -0.089101 0.027828 -0.015078
v -0.089061 0.027828 0.015078
v -0.016663 0.039087 0.015078
v -0.019604 0.035418 0.015078
v -0.016663 0.039087 -0.015078
v -0.019604 0.035410 -0.015078
v -0.047675 -0.007486 0.005035
v -0.047675 -0.014056 0.005035
v -0.047675 -0.007486 -0.005035
v -0.047675 -0.014056 -0.005035
v 0.020967 -0.014056 0.005035
v 0.020967 -0.014056 -0.005035
v 0.016730 -0.007486 -0.005035
v 0.016730 -0.007486 0.005035
v 0.037542 0.027587 -0.005035
v 0.037542 0.027587 0.005035
v 0.028785 0.027587 -0.005035
v 0.028785 0.027587 0.005035
v -0.115902 -0.079309 -0.011502
v -0.067309 -0.088574 -0.011502
v -0.067309 -0.088574 0.011502
v -0.115902 -0.079309 0.011502
v -0.088773 -0.006572 0.010891
v -0.088773 -0.006572 -0.010891
v -0.042761 -0.015346 -0.010891
v -0.042761 -0.015346 0.010891
vn 0.0000 -0.0000 -1.0000
vn -0.3996 -0.0318 -0.9161
vn -0.1873 -0.9823 0.0000
vn -0.9419 0.3359 0.0000
vn -1.0000 0.0000 0.0000
vn -0.0547 0.9985 0.0000
vn -0.9082 -0.4185 0.0000
vn 0.9451 -0.3268 0.0000
vn -0.2421 -0.9702 0.0000
vn 0.6246 -0.7810 0.0000
vn -0.0310 0.0000 0.9995
vn 0.4629 -0.6268 0.6268
vn -0.6851 -0.3922 0.6139
vn 0.4166 -0.7197 0.5555
vn 0.5010 -0.8654 0.0000
vn 1.0000 0.0000 0.0000
vn 0.4865 0.0000 -0.8737
vn -0.8679 -0.4968 0.0000
vn -0.0000 -0.7071 0.7071
vn -0.1324 -0.6946 0.7071
vn 0.6683 -0.2311 0.7071
vn -0.6660 0.2375 0.7071
vn 0.0000 -1.0000 0.0000
vn 0.0000 -0.7585 -0.6516
vn 0.0000 0.7585 -0.6516
vn 0.0000 -0.0000 1.0000
vn -0.0310 0.0000 -0.9995
vn 0.3664 -0.6579 -0.6579
vn -0.6851 -0.3922 -0.6139
vn 0.4166 -0.7197 -0.5555
vn -0.0000 -0.7071 -0.7071
vn -0.1324 -0.6946 -0.7071
vn 0.6683 -0.2311 -0.7071
vn -0.6660 0.2375 -0.7071
vn 0.0000 -0.7585 0.6516
vn 0.0000 0.7585 0.6516
vn 0.5941 -0.0000 0.8044
vn -0.8947 0.4466 0.0029
vn -0.3987 -0.0314 0.9165
vn -0.3330 0.9429 0.0000
vn -0.3702 -0.0028 -0.9289
vn -0.3696 -0.0048 0.9292
vn 0.0000 1.0000 0.0000
vn 0.9291 -0.3698 0.0000
vn -0.9457 0.3251 0.0000
vn -0.0015 -0.0078 -1.0000
vn 0.9370 -0.3495 0.0000
vn -0.9481 0.3178 0.0000
vn -0.0015 -0.0078 1.0000
vn -0.0000 -0.7238 0.6900
vn 0.0000 0.7238 0.6900
vn -0.0000 -0.7238 -0.6900
vn 0.0000 0.7238 -0.6900
usemtl metal_dark
s off
f 135//42 94//42 93//42 140//42 111//42
f 109//43 108//43 95//43 96//43 135//43
f 87//44 115//44 153//44 156//44
f 110//42 140//42 139//42 132//42
f 117//42 113//42 109//42
f 108//45 114//45 86//45 81//45
f 97//46 73//46 74//46 98//46
f 96//47 98//47 74//47 72//47
f 71//48 95//48 108//48 81//48
f 88//49 116//49 112//49 84//49
f 73//50 97//50 95//50 71//50
f 77//51 105//51 106//51 78//51
f 71//52 72//52 74//52 73//52
f 77//53 78//53 79//53
f 85//54 86//54 87//54
f 88//55 89//55 90//55
f 118//56 116//56 88//56 90//56
f 125//57 126//57 134//57 133//57
f 110//58 126//58 106//58 107//58
f 114//59 115//59 87//59 86//59
f 79//60 83//60 84//60 77//60
f 89//61 85//61 87//61 90//61
f 83//62 89//62 88//62 84//62
f 85//63 80//63 81//63 86//63
f 84//64 112//64 105//64 77//64
f 121//65 91//65 92//65 124//65
f 91//66 119//66 122//66 92//66
f 136//67 80//67 89//67 83//67
f 111//42 117//42 109//42 135//42
f 95//68 97//68 98//68 96//68
f 105//69 107//69 106//69
f 113//70 115//70 114//70
f 116//71 118//71 117//71
f 107//72 105//72 112//72 111//72
f 117//73 118//73 115//73 113//73
f 111//74 112//74 116//74 117//74
f 113//75 114//75 108//75 109//75
f 121//76 124//76 123//76 120//76
f 120//77 123//77 122//77 119//77
f 106//57 126//57 125//57 78//57
f 78//78 125//78 82//78 79//78
f 82//78 125//78 133//78 129//78
f 70//67 69//67 127//67 128//67
f 94//79 70//79 128//79 131//79
f 93//67 94//67 131//67 130//67
f 126//58 110//58 132//58 134//58
f 69//67 138//67 137//67 127//67
f 71//80 81//80 80//80 136//80 72//80
f 96//81 72//81 70//81 94//81
f 135//82 96//82 94//82
f 138//67 83//67 79//67 82//67
f 137//67 138//67 82//67 129//67
f 72//83 136//83 70//83
f 80//67 85//67 89//67
f 136//67 83//67 138//67 69//67 70//67
f 139//42 140//42 93//42 130//42
f 111//42 140//42 110//42 107//42
f 137//84 129//84 133//84 134//84 132//84 139//84
f 127//84 137//84 139//84 130//84 131//84 128//84
f 142//46 141//46 143//46 144//46
f 146//42 147//42 151//42 149//42
f 143//84 141//84 148//84 147//84
f 141//67 142//67 145//67 148//67
f 144//42 143//42 147//42 146//42
f 142//64 144//64 146//64 145//64
f 151//84 152//84 150//84 149//84
f 148//67 145//67 150//67 152//67
f 145//85 146//85 149//85 150//85
f 147//86 148//86 152//86 151//86
f 122//57 123//57 124//57 92//57
f 115//44 118//44 154//44 153//44
f 90//44 87//44 156//44 155//44
f 157//44 158//44 159//44 160//44
f 155//87 156//87 157//87 160//87
f 118//44 90//44 155//44 154//44
f 156//88 153//88 158//88 157//88
f 154//89 155//89 160//89 159//89
f 153//90 154//90 159//90 158//90
usemtl metal_light
f 99//91 100//91 76//91 75//91
f 75//92 76//92 104//92 103//92
f 104//57 76//57 91//57 121//57
f 76//57 100//57 119//57 91//57
f 99//93 101//93 102//93 100//93
f 101//94 103//94 104//94 102//94
f 104//57 121//57 120//57 102//57
f 102//57 120//57 119//57 100//57
