# Blender v2.78 (sub 0) OBJ File: 'smg-mp5x.blend'
# www.blender.org
mtllib smg-mp5x.mtl
o mag_Cube.000
v 0.026524 0.130852 -0.005792
v 0.026524 0.130852 0.005792
v 0.002511 0.117888 -0.005792
v 0.040671 0.078855 -0.005792
v 0.040671 0.078855 0.005792
v 0.014342 0.072092 0.005792
v 0.068474 0.018056 -0.005792
v 0.045659 0.004149 0.005792
v 0.002511 0.117888 0.005792
v 0.014342 0.072092 -0.005792
v 0.068474 0.018056 0.005792
v 0.045659 0.004149 -0.005792
vn 0.0000 -0.0000 1.0000
vn -0.0000 0.0000 -1.0000
vn 0.9649 0.2625 0.0000
vn 0.9094 0.4159 0.0000
vn 0.5205 -0.8539 0.0000
vn -0.9682 -0.2501 0.0000
vn -0.4751 0.8800 0.0000
vn -0.9082 -0.4186 0.0000
usemtl metal
s off
f 2//1 9//1 6//1 5//1
f 5//1 6//1 8//1 11//1
f 3//2 1//2 4//2 10//2
f 10//2 4//2 7//2 12//2
f 1//3 2//3 5//3 4//3
f 11//4 7//4 4//4 5//4
f 7//5 11//5 8//5 12//5
f 3//6 10//6 6//6 9//6
f 9//7 2//7 1//7 3//7
f 10//8 12//8 8//8 6//8
o mp5_Cube.001
v -0.145368 0.135611 0.012743
v -0.145368 0.135611 -0.012743
v -0.120496 0.128803 -0.012743
v -0.158127 0.148967 0.012743
v -0.158127 0.148967 -0.012743
v -0.120496 0.128803 0.012743
v 0.029376 0.128803 0.012743
v 0.029376 0.128803 -0.012743
v -0.157463 0.157666 0.013259
v 0.123844 0.194018 0.009654
v 0.123844 0.194018 -0.009654
v 0.123844 0.149699 -0.013663
v 0.123844 0.149699 0.013663
v -0.157463 0.176309 0.013259
v -0.157463 0.176309 -0.013259
v 0.123844 0.176309 0.016758
v -0.105838 0.114200 0.009654
v -0.105838 0.114200 -0.009654
v -0.000457 0.114200 0.012743
v -0.000457 0.114200 -0.012743
v -0.066206 0.114200 0.009654
v -0.106397 0.107186 0.009654
v -0.106397 0.107186 -0.009654
v -0.072259 0.099330 -0.009654
v -0.072259 0.099330 0.009654
v -0.139354 0.062787 0.009654
v -0.139354 0.062787 -0.009654
v -0.098421 0.043101 -0.009654
v -0.098421 0.043101 0.009654
v -0.155522 0.154265 0.003218
v -0.155522 0.154265 -0.003218
v -0.155522 0.172907 0.003218
v -0.155522 0.172907 -0.003218
v -0.023639 0.114200 -0.003218
v -0.083275 0.091689 -0.003218
v -0.083275 0.091689 0.003218
v -0.083275 0.083104 0.003218
v -0.083275 0.083104 -0.003218
v -0.022762 0.091689 -0.003218
v -0.022762 0.091689 0.003218
v -0.025751 0.083104 0.003218
v -0.025751 0.083104 -0.003218
v -0.031057 0.091689 -0.003218
v -0.033808 0.083104 -0.003218
v -0.031057 0.091689 0.003218
v -0.033808 0.083104 0.003218
v -0.015339 0.114200 -0.003218
v -0.015339 0.114200 0.003218
v -0.023639 0.114200 0.003218
v -0.173984 0.154265 0.003218
v -0.173984 0.154265 -0.003218
v -0.173984 0.172907 0.003218
v -0.173984 0.172907 -0.003218
v -0.300875 0.158652 0.005449
v -0.220296 0.159932 -0.005449
v -0.155522 0.159932 -0.003218
v -0.320261 0.158652 -0.005449
v -0.300875 0.081843 -0.005449
v -0.283887 0.090138 -0.005449
v -0.283887 0.090138 0.005449
v 0.166061 0.194018 -0.003669
v 0.166061 0.194018 0.003669
v 0.173912 0.194018 -0.003669
v 0.173912 0.194018 0.003669
v 0.166061 0.202022 -0.001609
v 0.166061 0.202022 0.001609
v 0.173912 0.202022 -0.001609
v 0.173912 0.202022 0.001609
v 0.161341 0.210707 -0.010132
v 0.179433 0.210707 -0.010132
v 0.161341 0.201134 -0.000560
v 0.179433 0.201134 -0.000560
v 0.161341 0.210707 0.009012
v 0.179433 0.210707 0.009012
v 0.161341 0.220279 -0.000560
v 0.179433 0.220279 -0.000560
v 0.161341 0.210707 -0.008708
v 0.179433 0.210707 -0.008708
v 0.161341 0.202558 -0.000560
v 0.179433 0.202558 -0.000560
v 0.161341 0.210707 0.007588
v 0.179433 0.210707 0.007588
v 0.161341 0.218855 -0.000560
v 0.179433 0.218855 -0.000560
v 0.180094 0.162804 -0.011448
v 0.297467 0.162804 -0.011448
v 0.180094 0.151916 -0.000560
v 0.297467 0.151916 -0.000560
v 0.180094 0.162804 0.010328
v 0.297467 0.162804 0.010328
v 0.180094 0.173693 -0.000560
v 0.297467 0.173693 -0.000560
v 0.297467 0.162804 -0.006042
v 0.245369 0.168287 -0.000560
v 0.297467 0.157322 -0.000560
v 0.245369 0.162804 0.004923
v 0.297467 0.162804 0.004923
v 0.245369 0.157322 -0.000560
v 0.297467 0.168287 -0.000560
v 0.245369 0.162804 -0.006042
v -0.145368 0.176309 0.016758
v -0.145368 0.194634 0.009654
v -0.145368 0.194634 -0.009654
v -0.120496 0.194018 0.009654
v -0.157463 0.191412 0.009654
v -0.157463 0.191412 -0.009654
v -0.120496 0.194018 -0.009654
v -0.145368 0.176309 -0.016758
v -0.145368 0.149807 -0.016758
v -0.120496 0.176309 0.016758
v -0.157463 0.157666 -0.013259
v -0.120496 0.176309 -0.016758
v -0.120496 0.149807 -0.016758
v -0.120496 0.149807 0.016758
v 0.029376 0.176309 -0.016758
v 0.029376 0.149807 -0.016758
v 0.029376 0.176309 0.016758
v 0.029376 0.149807 0.016758
v -0.145368 0.149807 0.016758
v 0.123844 0.176309 -0.016758
v 0.181142 0.176309 0.015354
v 0.166504 0.210707 -0.008708
v 0.174271 0.210707 -0.008708
v 0.166504 0.202558 -0.000560
v 0.174271 0.202558 -0.000560
v 0.166504 0.210707 0.007588
v 0.174271 0.210707 0.007588
v 0.166504 0.218855 -0.000560
v 0.174271 0.218855 -0.000560
v -0.105838 0.114200 -0.012743
v -0.066206 0.114200 -0.009654
v -0.105838 0.114200 0.012743
v -0.173984 0.159932 -0.003218
v -0.173984 0.159932 0.003218
v -0.220296 0.146346 0.005449
v -0.220296 0.177921 -0.005449
v -0.220296 0.159932 0.005449
v -0.220296 0.177921 0.005449
v -0.300875 0.177921 0.005449
v -0.220296 0.146346 -0.005449
v -0.155522 0.159932 0.003218
v -0.320261 0.158652 0.005449
v -0.320261 0.081062 0.005449
v -0.320261 0.081062 -0.005449
v -0.300875 0.081843 0.005449
v -0.084793 0.194018 0.004527
v -0.113023 0.194018 0.004527
v -0.113023 0.194018 -0.004527
v -0.084793 0.194018 -0.004527
v -0.084793 0.198588 0.004527
v -0.084793 0.198588 -0.004527
v -0.113023 0.202022 -0.004527
v -0.113023 0.202022 0.004527
v -0.300875 0.177921 -0.005449
v -0.320261 0.177921 -0.005449
v -0.320261 0.177921 0.005449
v 0.002741 0.116233 0.005792
v 0.027076 0.128803 0.005792
v 0.002741 0.116233 -0.005792
v 0.027076 0.128803 -0.005792
v 0.001378 0.121054 0.005791
v 0.025713 0.133623 0.005791
v 0.001378 0.121054 -0.005793
v 0.025713 0.133623 -0.005793
v 0.181142 0.149807 -0.013206
v 0.181142 0.149699 0.013206
v 0.181142 0.194018 0.008844
v 0.181142 0.149699 -0.013206
v 0.181142 0.176309 -0.015353
v 0.181142 0.194018 -0.008844
v -0.084533 0.128803 0.012743
v -0.084533 0.114200 0.012743
v -0.084533 0.149807 0.016758
v -0.084533 0.149807 -0.016758
v -0.084533 0.176309 -0.016758
v -0.084533 0.194018 -0.009654
v -0.084533 0.114200 -0.012743
v -0.084533 0.128803 -0.012743
v -0.084533 0.176309 0.016758
v -0.084533 0.194018 0.009654
v -0.096904 0.180590 -0.011267
v 0.133966 0.180590 -0.011267
v -0.096904 0.169402 -0.000079
v 0.133966 0.169402 -0.000079
v -0.096904 0.180590 0.011109
v 0.133966 0.180590 0.011109
v -0.096904 0.191778 -0.000079
v 0.133966 0.191778 -0.000079
v -0.320261 0.100647 -0.005449
v -0.271952 0.101194 -0.005449
v -0.320261 0.100647 0.005449
v -0.271952 0.101194 0.005449
v -0.300875 0.101194 0.005449
v -0.292943 0.081843 -0.005449
v -0.245121 0.146346 0.005449
v -0.230700 0.177921 0.005449
v -0.292943 0.081843 0.005449
v -0.230700 0.159932 0.005449
v -0.230700 0.177921 -0.005449
v -0.292943 0.101194 0.005449
v -0.300875 0.158652 -0.005449
v -0.300875 0.101194 -0.005449
v -0.245121 0.146346 -0.005449
v -0.230700 0.159932 -0.005449
v -0.292943 0.101194 -0.005449
v 0.037196 0.139157 0.015290
v 0.178235 0.139157 -0.014075
v 0.178235 0.139157 0.014075
v 0.037196 0.139157 -0.015290
v 0.037196 0.154038 0.018128
v 0.037196 0.154038 -0.018128
v 0.178235 0.154038 -0.015714
v 0.178235 0.153929 0.015714
vn 0.0248 0.9997 0.0000
vn -0.2847 -0.1782 -0.9419
vn -0.7231 -0.6907 0.0000
vn -0.2847 -0.1782 0.9419
vn 0.0000 -0.1878 -0.9822
vn -0.0304 -0.2224 0.9745
vn -0.0304 -0.2224 -0.9745
vn 0.0163 -0.0582 0.9982
vn 0.0163 -0.0582 -0.9982
vn 1.0000 0.0000 0.0000
vn 0.4461 -0.8893 0.1012
vn 0.0000 -0.1878 0.9822
vn 0.0000 0.0000 -1.0000
vn 0.0000 0.0000 1.0000
vn -0.7058 -0.7084 0.0000
vn -1.0000 0.0000 0.0000
vn -0.9971 0.0760 0.0000
vn -0.2640 -0.9645 0.0000
vn -0.2574 0.9663 0.0000
vn 0.0000 -1.0000 0.0000
vn 0.0000 1.0000 0.0000
vn 0.0000 0.2492 -0.9685
vn 0.0000 0.2492 0.9685
vn 0.0000 -0.7071 0.7071
vn 0.0000 0.7071 0.7071
vn -0.0000 0.7071 -0.7071
vn 0.0045 0.3668 -0.9303
vn 0.0045 0.3668 0.9303
vn -0.1756 0.3004 0.9375
vn -0.2780 0.0000 -0.9606
vn -0.1756 0.3004 -0.9375
vn -0.2780 0.0000 0.9606
vn 0.0000 -0.7071 -0.7071
vn 0.0000 0.3724 -0.9281
vn 0.1208 0.9927 0.0000
vn 0.9623 0.2722 0.0000
vn 0.5363 -0.8440 0.0000
vn 0.4461 -0.8893 -0.1012
vn 0.4589 -0.8885 0.0000
vn -0.0001 0.0002 1.0000
vn -0.9623 -0.2722 0.0000
vn 0.0001 -0.0002 -1.0000
vn 0.0180 0.3587 0.9333
vn 0.0180 0.3587 -0.9333
vn 0.0162 -0.0980 -0.9951
vn 0.0162 -0.0980 0.9951
vn 0.0000 0.3724 0.9281
vn -0.0011 -1.0000 0.0000
vn 0.0481 0.0000 0.9988
vn 0.9067 -0.4219 0.0000
vn 0.9262 -0.3770 0.0000
vn -0.4334 -0.9012 0.0000
vn -0.8030 0.5960 0.0000
vn -0.9968 0.0794 0.0000
vn 0.9444 -0.3287 0.0000
vn -0.9498 0.3130 0.0000
vn 0.9497 -0.3132 0.0000
vn -0.6857 0.7279 0.0000
vn 0.6796 -0.7336 0.0000
vn 0.0403 -0.9992 0.0000
vn 0.0182 -0.9998 0.0000
vn 0.1685 -0.9857 0.0000
vn 0.1076 0.9942 0.0000
vn 0.0481 0.0000 -0.9988
vn 0.6581 -0.7529 0.0000
vn -0.6865 0.7271 0.0000
vn 0.6754 -0.7374 0.0000
vn 0.0127 -0.1493 0.9887
vn 0.0127 -0.1488 -0.9888
vn 0.0004 1.0000 0.0016
usemtl metal_dark
s off
f 115//9 114//9 116//9 119//9
f 121//10 14//10 17//10 123//10
f 13//11 16//11 17//11 14//11
f 13//12 131//12 21//12 16//12
f 186//13 128//13 20//13 190//13
f 18//14 126//14 131//14 13//14
f 14//15 121//15 125//15 15//15
f 186//13 190//13 15//13 125//13
f 129//16 130//16 25//16 28//16
f 128//17 127//17 132//17 24//17
f 180//18 181//18 177//18
f 181//18 133//18 178//18 177//18
f 32//19 20//19 172//19 171//19
f 18//20 183//20 185//20 126//20
f 189//21 142//21 15//21 190//21
f 184//22 31//22 19//22 183//22
f 18//23 15//23 142//23 144//23
f 179//18 133//18 181//18 182//18
f 123//24 21//24 26//24 27//24
f 178//18 180//18 177//18
f 21//25 123//25 17//25 16//25
f 117//24 118//24 27//24 26//24
f 15//26 18//26 13//26 14//26
f 114//27 115//27 118//27 117//27
f 73//28 75//28 76//28 74//28
f 77//29 78//29 80//29 79//29
f 76//18 75//18 79//18 80//18
f 75//30 73//30 77//30 79//30
f 73//24 74//24 78//24 77//24
f 74//31 76//31 80//31 78//31
f 84//32 86//32 85//32 83//32
f 86//33 88//33 87//33 85//33
f 88//34 82//34 81//34 87//34
f 82//18 90//18 92//18 84//18
f 96//18 90//18 82//18 88//18
f 87//24 95//24 93//24 85//24
f 94//18 96//18 88//18 86//18
f 85//24 93//24 91//24 83//24
f 95//24 87//24 81//24 89//24
f 83//24 91//24 89//24 81//24
f 92//18 94//18 86//18 84//18
f 94//34 92//34 137//34 139//34
f 120//35 115//35 119//35 124//35
f 122//36 116//36 114//36 113//36
f 113//37 114//37 117//37 26//37
f 120//38 121//38 123//38 27//38
f 115//39 120//39 27//39 118//39
f 131//40 113//40 26//40 21//40
f 126//22 122//22 113//22 131//22
f 121//21 120//21 124//21 125//21
f 185//22 130//22 129//22 191//22
f 187//21 127//21 128//21 186//21
f 189//28 184//28 144//28 142//28
f 90//32 96//32 141//32 135//32
f 91//34 93//34 138//34 136//34
f 95//32 89//32 134//32 140//32
f 89//33 91//33 136//33 134//33
f 93//41 95//41 140//41 138//41
f 92//33 90//33 135//33 137//33
f 96//41 94//41 139//41 141//41
f 82//41 84//41 83//41 81//41
f 187//42 124//42 119//42 188//42
f 160//28 161//28 158//28 159//28
f 164//43 165//43 162//43 163//43
f 160//24 159//24 165//24 164//24
f 158//18 161//18 163//18 162//18
f 159//22 158//22 162//22 165//22
f 161//21 160//21 164//21 163//21
f 169//44 171//44 175//44 173//44
f 20//28 19//28 170//28 172//28
f 31//45 32//45 171//45 169//45
f 19//46 31//46 169//46 170//46
f 176//47 174//47 173//47 175//47
f 171//48 172//48 176//48 175//48
f 172//49 170//49 174//49 176//49
f 170//50 169//50 173//50 174//50
f 22//51 28//51 133//51 179//51
f 132//52 23//52 182//52 181//52
f 25//28 24//28 180//28 178//28
f 24//53 132//53 181//53 180//53
f 28//54 25//54 178//54 133//54
f 32//28 31//28 184//28 189//28
f 116//29 192//29 188//29 119//29
f 124//21 187//21 186//21 125//21
f 126//22 185//22 191//22 122//22
f 144//22 184//22 183//22 18//22
f 32//21 189//21 190//21 20//21
f 130//20 185//20 183//20 19//20
f 122//55 191//55 192//55 116//55
f 188//18 192//18 191//18 187//18
f 182//29 23//29 22//29 179//29
f 187//29 191//29 129//29 127//29
f 127//29 129//29 28//29 132//29
f 128//56 24//56 25//56 130//56
f 28//24 22//24 23//24 132//24
f 19//18 20//18 128//18 130//18
f 106//18 108//18 110//18 112//18
usemtl glass_blue
f 135//18 141//18 139//18 137//18
f 136//24 138//24 140//24 134//24
usemtl metal_light
f 100//32 102//32 101//32 99//32
f 102//33 104//33 103//33 101//33
f 104//34 98//34 97//34 103//34
f 111//32 106//32 112//32 105//32
f 105//33 112//33 110//33 107//33
f 109//41 108//41 106//41 111//41
f 98//18 105//18 107//18 100//18
f 107//34 110//34 108//34 109//34
f 111//18 105//18 98//18 104//18
f 109//18 111//18 104//18 102//18
f 107//18 109//18 102//18 100//18
f 98//41 100//41 99//41 97//41
f 196//32 198//32 197//32 195//32
f 198//33 200//33 199//33 197//33
f 200//34 194//34 193//34 199//34
f 194//41 196//41 195//41 193//41
usemtl metal
f 62//57 146//57 149//57 147//57
f 30//21 143//21 36//21 35//21
f 37//58 41//58 40//58 36//58
f 35//21 36//21 40//21 39//21
f 33//22 29//22 34//22 37//22
f 33//59 37//59 36//59 143//59
f 38//60 39//60 40//60 41//60
f 37//22 34//22 38//22 41//22
f 39//61 38//61 34//61 35//61
f 29//62 30//62 35//62 34//62
f 216//21 211//21 148//21 67//21
f 56//21 55//21 51//21 54//21
f 51//63 52//63 53//63 54//63
f 57//22 58//22 53//22 52//22
f 58//28 56//28 54//28 53//28
f 49//28 50//28 56//28 58//28
f 48//22 49//22 58//22 57//22
f 47//29 48//29 57//29 55//29
f 50//21 47//21 55//21 56//21
f 55//64 57//64 61//64 46//64
f 57//22 52//22 60//22 61//22
f 51//21 55//21 46//21 59//21
f 52//65 51//65 59//65 60//65
f 44//29 45//29 65//29 64//29
f 43//28 42//28 62//28 63//28
f 149//22 150//22 208//22 210//22
f 213//21 69//21 167//21 166//21
f 207//66 210//66 216//66 215//66
f 213//21 214//21 201//21 69//21
f 203//22 155//22 157//22 205//22
f 43//18 68//18 153//18 42//18
f 204//67 72//67 71//67 202//67
f 214//21 70//21 156//21 201//21
f 208//29 211//29 166//29 151//29
f 70//68 157//68 155//68 156//68
f 206//28 209//28 157//28 70//28
f 210//69 66//69 213//69 216//69
f 62//70 147//70 152//70 63//70
f 205//29 212//29 217//29 214//29
f 216//21 213//21 166//21 211//21
f 66//18 205//18 214//18 213//18
f 154//22 203//22 205//22 66//22
f 148//71 150//71 64//71 65//71
f 145//72 63//72 152//72 67//72
f 217//21 206//21 70//21 214//21
f 65//72 145//72 67//72 148//72
f 147//22 149//22 210//22 207//22
f 68//18 45//18 44//18 153//18
f 153//22 146//22 62//22 42//22
f 44//22 64//22 146//22 153//22
f 145//21 68//21 43//21 63//21
f 65//21 45//21 68//21 145//21
f 212//22 204//22 147//22 207//22
f 151//29 166//29 167//29 168//29
f 154//22 66//22 151//22 168//22
f 69//24 154//24 168//24 167//24
f 155//24 203//24 201//24 156//24
f 209//22 72//22 204//22 212//22
f 147//73 204//73 202//73 152//73
f 152//21 202//21 217//21 215//21
f 157//22 209//22 212//22 205//22
f 212//74 207//74 215//74 217//74
f 66//22 210//22 208//22 151//22
f 202//21 71//21 206//21 217//21
f 67//21 152//21 215//21 216//21
f 71//75 72//75 209//75 206//75
f 150//29 148//29 211//29 208//29
f 203//24 154//24 69//24 201//24
f 219//28 220//28 218//28 221//28
f 220//76 225//76 222//76 218//76
f 224//77 219//77 221//77 223//77
f 218//24 222//24 223//24 221//24
f 219//18 224//18 225//18 220//18
f 222//78 225//78 224//78 223//78
f 64//57 150//57 149//57 146//57
