# Blender v2.78 (sub 0) OBJ File: 'sniper.blend'
# www.blender.org
mtllib sniper.mtl
o scope_Cube.002
v -0.251208 0.163540 -0.030463
v 0.051174 0.163540 -0.052881
v -0.251208 0.133076 -0.000000
v 0.051174 0.110659 -0.000000
v -0.251208 0.163540 0.030463
v 0.051174 0.163540 0.052881
v -0.251208 0.194003 0.000000
v 0.051174 0.216420 -0.000000
v 0.051174 0.163540 -0.024272
v 0.051174 0.139268 -0.000000
v 0.051174 0.163540 0.024272
v 0.051174 0.187811 -0.000000
v 0.033607 0.163540 -0.024272
v 0.033607 0.139268 -0.000000
v 0.033607 0.163540 0.024272
v 0.033607 0.187811 -0.000000
v -0.006757 0.163540 -0.052881
v -0.006757 0.110659 -0.000000
v -0.006757 0.163540 0.052881
v -0.006757 0.216420 -0.000000
v -0.024846 0.163540 -0.030463
v -0.024846 0.133076 -0.000000
v -0.024846 0.163540 0.030463
v -0.024846 0.194003 0.000000
v -0.251208 0.163540 -0.024596
v -0.251208 0.138944 -0.000000
v -0.251208 0.163540 0.024596
v -0.251208 0.188136 0.000000
v -0.230645 0.163540 -0.024596
v -0.230645 0.138944 -0.000000
v -0.230645 0.163540 0.024596
v -0.230645 0.188136 0.000000
v -0.075367 0.096672 0.009366
v -0.148254 0.096672 0.009366
v -0.148254 0.096672 -0.009366
v -0.075367 0.096672 -0.009366
v -0.148254 0.163540 0.037232
v -0.148254 0.200772 0.000000
v -0.075367 0.200772 0.000000
v -0.075367 0.163540 0.037232
v -0.075367 0.163540 -0.037232
v -0.148254 0.122835 0.009366
v -0.148254 0.163540 -0.037232
v -0.148254 0.122835 -0.009366
v -0.075367 0.122835 0.009366
v -0.075367 0.122835 -0.009366
v -0.006757 0.200772 0.000000
v -0.006757 0.163540 0.037232
v -0.006757 0.126307 -0.000000
v -0.006757 0.163540 -0.037232
v -0.024846 0.163540 -0.037232
v -0.024846 0.126307 -0.000000
v -0.024846 0.163540 0.037232
v -0.024846 0.200772 0.000000
vn 1.0000 0.0000 0.0000
vn 0.0000 0.7071 -0.7071
vn 0.0000 0.7071 0.7071
vn -1.0000 -0.0000 0.0000
vn 0.0000 -0.5649 -0.8252
vn 0.0000 -0.5649 0.8252
vn 0.0000 0.0000 -1.0000
vn 0.0000 0.0000 1.0000
vn -0.0000 -0.7071 -0.7071
vn 0.0000 -0.7071 0.7071
usemtl metal
s off
f 46//1 41//1 39//1 40//1 45//1
f 38//2 39//2 41//2 43//2
f 39//3 38//3 37//3 40//3
f 42//4 37//4 38//4 43//4 44//4
f 46//5 44//5 43//5 41//5
f 42//6 45//6 40//6 37//6
f 44//7 46//7 36//7 35//7
f 42//4 44//4 35//4 34//4
f 46//1 45//1 33//1 36//1
f 45//8 42//8 34//8 33//8
usemtl metal_light
f 21//9 22//9 3//9 1//9
f 4//10 6//10 19//10 18//10
f 6//3 8//3 20//3 19//3
f 19//4 48//4 49//4 18//4
f 4//1 2//1 9//1 10//1
f 4//1 10//1 11//1 6//1
f 2//1 8//1 12//1 9//1
f 9//3 13//3 14//3 10//3
f 9//10 12//10 16//10 13//10
f 12//9 11//9 15//9 16//9
f 11//2 10//2 14//2 15//2
f 22//4 52//4 53//4 23//4
f 2//9 4//9 18//9 17//9
f 24//4 23//4 53//4 54//4
f 21//4 51//4 52//4 22//4
f 20//4 47//4 48//4 19//4
f 7//2 24//2 21//2 1//2
f 1//4 25//4 28//4 7//4
f 22//10 23//10 5//10 3//10
f 23//3 24//3 7//3 5//3
f 6//1 11//1 12//1 8//1
f 1//4 3//4 26//4 25//4
f 5//4 7//4 28//4 27//4
f 3//4 5//4 27//4 26//4
f 25//10 29//10 32//10 28//10
f 27//9 28//9 32//9 31//9
f 26//2 27//2 31//2 30//2
f 25//3 26//3 30//3 29//3
f 47//2 50//2 51//2 54//2
f 20//2 8//2 2//2 17//2
f 51//9 50//9 49//9 52//9
f 17//4 18//4 49//4 50//4
f 53//3 48//3 47//3 54//3
f 52//10 49//10 48//10 53//10
f 20//4 17//4 50//4 47//4
f 21//4 24//4 54//4 51//4
usemtl glass_blue
f 29//4 30//4 31//4 32//4
f 14//1 13//1 16//1 15//1
o body_Cube
v -0.726067 0.003902 0.016908
v -0.719945 -0.098668 0.016908
v -0.665632 0.009343 -0.016908
v -0.665632 0.009343 0.016908
v -0.660178 -0.098455 0.016908
v -0.688070 -0.158590 0.016908
v -0.643275 -0.152581 -0.016908
v -0.643275 -0.152581 0.016908
v -0.347906 -0.008674 0.023615
v -0.347906 0.084637 0.023615
v -0.347906 0.084637 -0.023615
v 0.013348 0.021957 0.023615
v 0.013348 0.084637 0.023615
v 0.013348 0.021957 -0.023615
v 0.013348 0.084637 -0.023615
v -0.326452 0.084637 -0.023615
v -0.326452 0.084637 0.023615
v -0.225460 0.084637 -0.023615
v -0.122964 -0.008674 0.023615
v -0.122964 -0.008674 -0.023615
v -0.225460 0.084637 0.023615
v -0.347906 0.037981 -0.023615
v -0.347906 0.037981 0.023615
v -0.225460 0.037981 0.023615
v -0.225460 0.037981 -0.023615
v -0.347906 -0.008674 -0.023615
v -0.311781 -0.038732 -0.023615
v -0.311781 -0.038732 0.023615
v -0.141702 -0.038732 0.023615
v -0.141702 -0.038732 -0.023615
v -0.017662 0.084637 -0.023615
v -0.017662 -0.008674 0.023615
v -0.017662 -0.008674 -0.023615
v -0.017662 0.084637 0.023615
v -0.017662 0.037981 0.023615
v -0.017662 0.037981 -0.023615
v 0.013348 0.107824 0.017711
v -0.326452 0.107824 -0.017711
v -0.326452 0.107824 0.017711
v 0.013348 0.107824 -0.017711
v -0.382014 0.061319 -0.021557
v 0.747991 0.061319 -0.021557
v -0.382014 0.039762 -0.000000
v 0.747991 0.039762 -0.000000
v -0.382014 0.061319 0.021557
v 0.747991 0.061319 0.021557
v -0.382014 0.082876 0.000000
v 0.747991 0.082876 -0.000000
v -0.306985 -0.064243 0.012813
v -0.306985 -0.039111 0.012813
v -0.306985 -0.064243 -0.012813
v -0.306985 -0.039111 -0.012813
v -0.239183 -0.095060 0.012813
v -0.239183 -0.039111 0.012813
v -0.239183 -0.095060 -0.012813
v -0.239183 -0.039111 -0.012813
v -0.390865 -0.192181 0.012813
v -0.390865 -0.192181 -0.012813
v -0.300781 -0.220153 0.012813
v -0.300781 -0.220153 -0.012813
v -0.141702 -0.095060 0.007549
v -0.141702 0.001662 0.007549
v -0.141702 -0.095060 -0.007549
v -0.141702 0.001662 -0.007549
v -0.018156 -0.073515 0.007549
v -0.017662 0.001662 0.007549
v -0.018156 -0.073515 -0.007549
v -0.017662 0.001662 -0.007549
v -0.017662 -0.073515 0.007549
v -0.017662 -0.073515 -0.007549
v -0.141702 -0.080552 -0.007549
v -0.141702 -0.080552 0.007549
v -0.246807 -0.095060 0.007549
v -0.246807 -0.095060 -0.007549
v -0.246807 -0.080552 -0.007549
v -0.246807 -0.080552 0.007549
v 0.622840 0.060922 -0.029097
v 0.623789 0.031825 -0.000000
v 0.638012 0.060922 0.029097
v 0.650338 0.090019 -0.000000
v 0.027909 0.090019 0.000000
v 0.027909 0.060922 0.029097
v 0.027909 0.031825 -0.000000
v 0.027909 0.060922 -0.029097
v 0.623976 0.060922 -0.026067
v 0.624825 0.034855 -0.000000
v 0.637568 0.060922 0.026067
v 0.648611 0.086989 -0.000000
v 0.397092 0.060922 -0.026067
v 0.397092 0.034855 -0.000000
v 0.397092 0.060922 0.026067
v 0.397092 0.086989 -0.000000
v 0.747991 0.061319 -0.013757
v 0.747991 0.047562 -0.000000
v 0.747991 0.061319 0.013757
v 0.747991 0.075076 -0.000000
v 0.570099 0.061319 -0.013757
v 0.570099 0.047562 -0.000000
v 0.570099 0.061319 0.013757
v 0.570099 0.075076 -0.000000
v -0.034315 0.085062 0.019830
v -0.208807 0.085062 0.019830
v -0.208807 0.085062 -0.019830
v -0.034315 0.085062 -0.019830
v -0.029770 0.036763 0.020863
v -0.213352 0.036763 0.020863
v -0.213352 0.036763 -0.020863
v -0.029770 0.036763 -0.020863
v -0.563696 -0.051831 0.007449
v -0.563696 0.016613 0.012813
v -0.563696 -0.051831 -0.007449
v -0.563696 0.016613 -0.012813
v -0.452609 -0.051831 0.007449
v -0.373817 0.016613 0.007449
v -0.452609 -0.051831 -0.007449
v -0.373817 0.016613 -0.007449
v -0.368847 0.061319 -0.028240
v -0.368847 0.061319 0.028240
v -0.726067 0.040155 0.016908
v -0.726067 0.040155 -0.016908
v -0.542608 0.061319 -0.028240
v -0.542608 0.061319 0.028240
v -0.665632 0.061319 -0.023919
v -0.665632 0.061319 0.023919
v -0.368847 0.009343 0.020038
v -0.547134 0.014410 -0.020038
v -0.547134 0.014410 0.020038
v -0.554803 -0.098455 0.016908
v 0.027909 0.060922 -0.038965
v 0.027909 0.021957 -0.000000
v 0.027909 0.060922 0.038965
v 0.027909 0.099887 0.000000
v 0.018242 0.060922 -0.038965
v 0.018242 0.021957 -0.000000
v 0.018242 0.060922 0.038965
v 0.018242 0.099887 0.000000
v -0.726067 0.003902 -0.016908
v -0.719945 -0.098668 -0.016908
v -0.660178 -0.098455 -0.016908
v -0.688070 -0.158590 -0.016908
v -0.368847 0.009343 -0.020038
v -0.554803 -0.098455 -0.016908
v -0.368847 0.096644 -0.008285
v -0.368847 0.096644 0.008285
v -0.542608 0.096644 0.008285
v -0.542608 0.096644 -0.008285
v -0.665632 0.094882 -0.006006
v -0.665632 0.094882 0.006006
v -0.726067 0.071306 0.006437
v -0.726067 0.071306 -0.006437
vn -1.0000 0.0000 0.0000
vn 0.0000 0.0000 -1.0000
vn 0.0000 0.0000 1.0000
vn 0.7027 -0.7114 0.0000
vn 0.0000 1.0000 0.0000
vn 0.0000 0.2467 0.9691
vn 1.0000 0.0000 0.0000
vn -0.6396 -0.7687 -0.0000
vn 0.0000 -1.0000 0.0000
vn 0.8486 -0.5290 0.0000
vn 0.0000 0.2467 -0.9691
vn 0.0255 -0.9997 0.0000
vn 0.0000 0.9143 -0.4049
vn 0.0000 -0.9938 0.1115
vn -0.0255 -0.9997 0.0000
vn 0.0000 -0.9938 -0.1115
vn 0.0000 0.9143 0.4049
vn -0.1002 0.9950 0.0000
vn 0.1002 0.9950 0.0000
vn 0.0178 -0.0494 -0.9986
vn 0.6558 -0.7549 0.0000
vn 0.0178 -0.0494 0.9986
vn -0.0232 0.4917 0.8704
vn -0.0000 0.4919 0.8707
vn -0.0404 -0.0792 -0.9960
vn -0.0137 -0.0140 0.9998
vn -0.0404 -0.0792 0.9960
vn 0.9977 -0.0678 -0.0000
vn -0.0137 -0.0140 -0.9998
vn -0.1947 0.3940 -0.8983
vn -0.0348 -0.1336 -0.9904
vn -0.0273 -0.1508 0.9882
vn 0.1330 -0.9911 0.0000
vn 0.9545 0.2981 0.0000
vn 0.9372 -0.3207 -0.1374
vn 0.0000 0.7071 0.7071
vn -0.2965 -0.9550 0.0000
vn -0.8363 0.5483 0.0000
vn 0.8971 -0.4418 0.0000
vn 0.1718 -0.9851 0.0000
vn -0.0000 -0.7071 -0.7071
vn 0.0000 -0.7071 0.7071
vn 0.8260 -0.4710 -0.3096
vn 0.8917 -0.3052 -0.3342
vn 0.8617 -0.4914 -0.1264
vn 0.0000 0.7071 -0.7071
vn -0.0024 -0.1635 -0.9865
vn -0.0232 0.4917 -0.8704
vn -0.0284 -0.9996 0.0000
vn -0.0024 -0.1635 0.9865
vn -0.1947 0.3940 0.8983
vn -0.8829 -0.4696 0.0000
vn -0.0310 0.4706 0.8818
vn -0.9982 -0.0596 0.0000
vn 0.0000 0.4919 -0.8707
vn -0.0310 0.4706 -0.8818
vn -0.0143 0.9999 0.0000
vn -0.3634 0.9316 0.0000
vn -0.0187 -0.1705 -0.9852
usemtl metal
s off
f 77//11 64//11 65//11 76//11
f 90//12 85//12 69//12 68//12
f 77//13 71//13 64//13
f 87//14 68//14 66//14 86//14
f 70//15 65//15 64//15 71//15
f 80//12 74//12 84//12 81//12
f 78//13 75//13 71//13 77//13
f 76//12 65//12 70//12
f 75//16 88//16 91//16 93//16
f 76//12 70//12 72//12 79//12
f 80//12 76//12 79//12 74//12
f 86//13 89//13 78//13 73//13
f 73//13 78//13 77//13 63//13
f 68//17 69//17 67//17 66//17
f 87//12 90//12 68//12
f 63//11 77//11 76//11 80//11
f 80//18 81//18 82//18 63//18
f 81//19 84//19 83//19 82//19
f 73//13 63//13 82//13 83//13
f 74//20 73//20 83//20 84//20
f 74//12 79//12 90//12 87//12
f 66//13 89//13 86//13
f 85//21 72//21 92//21 94//21
f 66//13 67//13 88//13 89//13
f 74//19 87//19 86//19 73//19
f 94//15 92//15 93//15 91//15
f 88//16 67//16 91//16
f 71//16 75//16 93//16
f 72//21 70//21 92//21
f 69//21 85//21 94//21
f 70//11 71//11 93//11 92//11
f 91//17 67//17 69//17 94//17
f 75//22 72//22 157//22 156//22
f 78//23 89//23 159//23 160//23
f 78//17 79//17 72//17 75//17
f 89//11 88//11 85//11 90//11
f 155//19 156//19 157//19 158//19
f 72//24 85//24 158//24 157//24
f 85//25 88//25 155//25 158//25
f 88//26 75//26 156//26 155//26
f 159//15 162//15 161//15 160//15
f 90//27 79//27 161//27 162//27
f 89//28 90//28 162//28 159//28
f 79//29 78//29 160//29 161//29
f 165//30 166//30 170//30 169//30
f 169//31 170//31 168//31 167//31
f 167//32 168//32 164//32 163//32
f 163//19 165//19 169//19 167//19
usemtl metal_dark
f 176//33 199//33 202//33
f 176//34 172//34 198//34 199//34
f 177//35 57//35 191//35 174//35
f 182//36 181//36 58//36 59//36
f 58//37 178//37 173//37 55//37
f 180//38 181//38 182//38 196//38
f 180//39 196//39 193//39 57//39
f 192//12 193//12 61//12 194//12
f 58//13 55//13 56//13 59//13
f 174//40 204//40 201//40 177//40
f 191//12 57//12 193//12 192//12
f 57//41 177//41 175//41
f 181//42 176//42 178//42 58//42
f 196//19 182//19 59//19 193//19
f 61//43 62//43 60//43 194//43
f 193//44 59//44 62//44 61//44
f 59//13 56//13 60//13 62//13
f 132//45 140//45 141//45 133//45
f 133//46 134//46 135//46 136//46
f 103//11 104//11 106//11 105//11
f 105//12 106//12 110//12 109//12
f 109//17 110//17 108//17 107//17
f 107//13 108//13 104//13 103//13
f 107//13 103//13 111//13 113//13
f 112//47 114//47 113//47 111//47
f 105//12 109//12 114//12 112//12
f 103//48 105//48 112//48 111//48
f 109//49 107//49 113//49 114//49
f 126//11 116//11 118//11 125//11
f 125//12 118//12 122//12 124//12
f 124//17 122//17 120//17 123//17
f 123//13 120//13 116//13 126//13
f 119//13 123//13 126//13 115//13
f 117//12 125//12 124//12 121//12
f 121//19 124//19 123//19 119//19
f 115//50 117//50 121//50 119//50
f 125//12 117//12 128//12 129//12
f 126//15 125//15 129//15 130//15
f 115//13 126//13 130//13 127//13
f 117//19 115//19 127//19 128//19
f 131//51 132//51 137//51 138//51
f 132//52 133//52 136//52 137//52
f 131//53 134//53 142//53 139//53
f 131//54 139//54 140//54 132//54
f 134//55 133//55 141//55 142//55
f 141//56 140//56 144//56 145//56
f 140//46 139//46 143//46 144//46
f 141//51 145//51 146//51 142//51
f 139//52 142//52 146//52 143//52
f 135//17 138//17 183//17 186//17
f 147//46 151//46 152//46 148//46
f 147//52 150//52 154//52 151//52
f 150//51 149//51 153//51 154//51
f 149//56 148//56 152//56 153//56
f 152//17 151//17 154//17 153//17
f 203//11 204//11 174//11 173//11
f 195//57 180//57 175//57 171//57
f 201//58 200//58 175//58
f 195//59 179//59 181//59 180//59
f 136//17 135//17 186//17 185//17
f 186//56 183//56 187//56 190//56
f 138//17 137//17 184//17 183//17
f 185//46 186//46 190//46 189//46
f 184//52 185//52 189//52 188//52
f 183//51 184//51 188//51 187//51
f 137//17 136//17 185//17 184//17
f 181//60 179//60 172//60 176//60
f 135//56 134//56 131//56 138//56
f 173//61 178//61 202//61 203//61
f 56//62 192//62 194//62 60//62
f 178//63 176//63 202//63
f 55//64 191//64 192//64 56//64
f 173//11 174//11 191//11 55//11
f 175//65 200//65 197//65 171//65
f 187//11 188//11 189//11 190//11
f 171//17 197//17 198//17 172//17
f 177//66 201//66 175//66
f 202//67 199//67 200//67 201//67
f 203//68 202//68 201//68 204//68
f 199//15 198//15 197//15 200//15
f 195//17 171//17 172//17 179//17
f 180//69 57//69 175//69
usemtl metal_light
f 96//51 98//51 97//51 95//51
f 98//52 100//52 99//52 97//52
f 100//46 102//46 101//46 99//46
f 100//17 149//17 150//17 102//17
f 98//17 96//17 147//17 148//17
f 98//17 148//17 149//17 100//17
f 96//17 102//17 150//17 147//17
f 101//56 102//56 96//56 95//56
